<mxfile host="65bd71144e">
    <diagram id="2mXPJXkUyhQm3R5-PUtg" name="Page-1">
        <mxGraphModel dx="1468" dy="589" grid="1" gridSize="10" guides="1" tooltips="1" connect="1" arrows="1" fold="1" page="1" pageScale="1" pageWidth="850" pageHeight="1100" math="0" shadow="0">
            <root>
                <mxCell id="0"/>
                <mxCell id="1" parent="0"/>
                <mxCell id="5" style="edgeStyle=none;html=1;exitX=0.5;exitY=1;exitDx=0;exitDy=0;" edge="1" parent="1" source="2" target="4">
                    <mxGeometry relative="1" as="geometry"/>
                </mxCell>
                <mxCell id="2" value="抛出错误" style="whiteSpace=wrap;html=1;" vertex="1" parent="1">
                    <mxGeometry x="290" y="60" width="120" height="60" as="geometry"/>
                </mxCell>
                <mxCell id="8" style="edgeStyle=none;html=1;exitX=1;exitY=0.5;exitDx=0;exitDy=0;entryX=0.5;entryY=0;entryDx=0;entryDy=0;" edge="1" parent="1" source="4" target="7">
                    <mxGeometry relative="1" as="geometry">
                        <Array as="points">
                            <mxPoint x="510" y="210"/>
                        </Array>
                    </mxGeometry>
                </mxCell>
                <mxCell id="9" style="edgeStyle=none;html=1;exitX=0;exitY=0.5;exitDx=0;exitDy=0;entryX=0.442;entryY=-0.011;entryDx=0;entryDy=0;entryPerimeter=0;" edge="1" parent="1" source="4" target="6">
                    <mxGeometry relative="1" as="geometry">
                        <Array as="points">
                            <mxPoint x="253" y="210"/>
                        </Array>
                    </mxGeometry>
                </mxCell>
                <mxCell id="4" value="哪个阶段" style="rhombus;whiteSpace=wrap;html=1;strokeColor=default;fillColor=none;" vertex="1" parent="1">
                    <mxGeometry x="310" y="170" width="80" height="80" as="geometry"/>
                </mxCell>
                <mxCell id="13" style="edgeStyle=none;html=1;exitX=0.5;exitY=1;exitDx=0;exitDy=0;entryX=0.5;entryY=0;entryDx=0;entryDy=0;" edge="1" parent="1" source="6" target="12">
                    <mxGeometry relative="1" as="geometry">
                        <Array as="points">
                            <mxPoint x="260" y="390"/>
                        </Array>
                    </mxGeometry>
                </mxCell>
                <mxCell id="6" value="handleError" style="whiteSpace=wrap;html=1;strokeColor=default;fillColor=none;" vertex="1" parent="1">
                    <mxGeometry x="200" y="300" width="120" height="60" as="geometry"/>
                </mxCell>
                <mxCell id="14" style="edgeStyle=none;html=1;exitX=0.5;exitY=1;exitDx=0;exitDy=0;" edge="1" parent="1" source="7">
                    <mxGeometry relative="1" as="geometry">
                        <mxPoint x="350" y="390" as="targetPoint"/>
                        <Array as="points">
                            <mxPoint x="510" y="390"/>
                        </Array>
                    </mxGeometry>
                </mxCell>
                <mxCell id="7" value="captureCommitPhaseError" style="whiteSpace=wrap;html=1;strokeColor=default;fillColor=none;" vertex="1" parent="1">
                    <mxGeometry x="410" y="300" width="200" height="60" as="geometry"/>
                </mxCell>
                <mxCell id="10" value="commit阶段" style="text;html=1;align=center;verticalAlign=middle;resizable=0;points=[];autosize=1;strokeColor=none;fillColor=none;" vertex="1" parent="1">
                    <mxGeometry x="405" y="165" width="90" height="30" as="geometry"/>
                </mxCell>
                <mxCell id="11" value="render阶段" style="text;html=1;align=center;verticalAlign=middle;resizable=0;points=[];autosize=1;strokeColor=none;fillColor=none;" vertex="1" parent="1">
                    <mxGeometry x="220" y="165" width="80" height="30" as="geometry"/>
                </mxCell>
                <mxCell id="20" style="edgeStyle=none;html=1;exitX=0;exitY=0.5;exitDx=0;exitDy=0;entryX=0.12;entryY=-0.033;entryDx=0;entryDy=0;entryPerimeter=0;" edge="1" parent="1" source="12" target="15">
                    <mxGeometry relative="1" as="geometry"/>
                </mxCell>
                <mxCell id="23" style="edgeStyle=none;html=1;exitX=1;exitY=0.5;exitDx=0;exitDy=0;entryX=0.75;entryY=0;entryDx=0;entryDy=0;" edge="1" parent="1" source="12" target="15">
                    <mxGeometry relative="1" as="geometry"/>
                </mxCell>
                <mxCell id="12" value="是否有&lt;br&gt;Error Boundaries" style="rhombus;whiteSpace=wrap;html=1;strokeColor=default;fillColor=none;" vertex="1" parent="1">
                    <mxGeometry x="290" y="390" width="120" height="110" as="geometry"/>
                </mxCell>
                <mxCell id="21" style="edgeStyle=none;html=1;exitX=0.25;exitY=1;exitDx=0;exitDy=0;entryX=0.75;entryY=0;entryDx=0;entryDy=0;" edge="1" parent="1" source="15" target="16">
                    <mxGeometry relative="1" as="geometry"/>
                </mxCell>
                <mxCell id="24" style="edgeStyle=none;html=1;exitX=0.75;exitY=1;exitDx=0;exitDy=0;entryX=0.116;entryY=-0.08;entryDx=0;entryDy=0;entryPerimeter=0;" edge="1" parent="1" source="15" target="17">
                    <mxGeometry relative="1" as="geometry"/>
                </mxCell>
                <mxCell id="15" value="抛出React提示信息的callback" style="whiteSpace=wrap;html=1;strokeColor=default;fillColor=none;" vertex="1" parent="1">
                    <mxGeometry x="227.5" y="500" width="245" height="40" as="geometry"/>
                </mxCell>
                <mxCell id="22" style="edgeStyle=none;html=1;exitX=0.75;exitY=1;exitDx=0;exitDy=0;entryX=0.5;entryY=0;entryDx=0;entryDy=0;" edge="1" parent="1" source="16" target="18">
                    <mxGeometry relative="1" as="geometry"/>
                </mxCell>
                <mxCell id="16" value="执行Error Boundaries API的callback" style="whiteSpace=wrap;html=1;strokeColor=default;fillColor=none;" vertex="1" parent="1">
                    <mxGeometry x="90" y="570" width="250" height="50" as="geometry"/>
                </mxCell>
                <mxCell id="25" style="edgeStyle=none;html=1;exitX=0.156;exitY=1.013;exitDx=0;exitDy=0;entryX=0.25;entryY=0;entryDx=0;entryDy=0;exitPerimeter=0;" edge="1" parent="1" source="17" target="19">
                    <mxGeometry relative="1" as="geometry"/>
                </mxCell>
                <mxCell id="17" value="抛出未捕获错误的callback" style="whiteSpace=wrap;html=1;strokeColor=default;fillColor=none;" vertex="1" parent="1">
                    <mxGeometry x="380" y="570" width="250" height="50" as="geometry"/>
                </mxCell>
                <mxCell id="18" value="类似this.setState" style="whiteSpace=wrap;html=1;strokeColor=default;fillColor=none;" vertex="1" parent="1">
                    <mxGeometry x="170" y="680" width="170" height="60" as="geometry"/>
                </mxCell>
                <mxCell id="19" value="类似ReactDOM.render" style="whiteSpace=wrap;html=1;strokeColor=default;fillColor=none;" vertex="1" parent="1">
                    <mxGeometry x="380" y="680" width="170" height="60" as="geometry"/>
                </mxCell>
                <mxCell id="27" value="有" style="text;html=1;align=center;verticalAlign=middle;resizable=0;points=[];autosize=1;strokeColor=none;fillColor=none;" vertex="1" parent="1">
                    <mxGeometry x="230" y="425" width="40" height="30" as="geometry"/>
                </mxCell>
                <mxCell id="28" value="无" style="text;html=1;align=center;verticalAlign=middle;resizable=0;points=[];autosize=1;strokeColor=none;fillColor=none;" vertex="1" parent="1">
                    <mxGeometry x="420" y="425" width="40" height="30" as="geometry"/>
                </mxCell>
                <mxCell id="29" value="" style="shape=curlyBracket;whiteSpace=wrap;html=1;rounded=1;labelPosition=left;verticalLabelPosition=middle;align=right;verticalAlign=middle;strokeColor=default;fillColor=none;" vertex="1" parent="1">
                    <mxGeometry x="80" y="210" width="20" height="120" as="geometry"/>
                </mxCell>
                <mxCell id="30" value="捕获错误" style="text;html=1;align=center;verticalAlign=middle;resizable=0;points=[];autosize=1;strokeColor=none;fillColor=none;" vertex="1" parent="1">
                    <mxGeometry x="-25" y="255" width="70" height="30" as="geometry"/>
                </mxCell>
                <mxCell id="32" value="" style="shape=curlyBracket;whiteSpace=wrap;html=1;rounded=1;labelPosition=left;verticalLabelPosition=middle;align=right;verticalAlign=middle;strokeColor=default;fillColor=none;" vertex="1" parent="1">
                    <mxGeometry x="25" y="480" width="20" height="140" as="geometry"/>
                </mxCell>
                <mxCell id="33" value="" style="shape=curlyBracket;whiteSpace=wrap;html=1;rounded=1;labelPosition=left;verticalLabelPosition=middle;align=right;verticalAlign=middle;strokeColor=default;fillColor=none;" vertex="1" parent="1">
                    <mxGeometry x="25" y="680" width="20" height="90" as="geometry"/>
                </mxCell>
                <mxCell id="34" value="构造callback" style="text;html=1;align=center;verticalAlign=middle;resizable=0;points=[];autosize=1;strokeColor=none;fillColor=none;" vertex="1" parent="1">
                    <mxGeometry x="-70" y="520" width="90" height="30" as="geometry"/>
                </mxCell>
                <mxCell id="35" value="执行callback" style="text;html=1;align=center;verticalAlign=middle;resizable=0;points=[];autosize=1;strokeColor=none;fillColor=none;" vertex="1" parent="1">
                    <mxGeometry x="-75" y="705" width="90" height="30" as="geometry"/>
                </mxCell>
            </root>
        </mxGraphModel>
    </diagram>
</mxfile>